<svg preserveAspectRatio="none" overflow="visible" style="display: block;" width="5.28108" height="5.99799" viewBox="0 0 5.28108 5.99799" fill="none" xmlns="http://www.w3.org/2000/svg">
<path id="Vector" d="M2.64276 5.99797C2.18345 5.99855 1.73229 5.87663 1.33573 5.64474C0.921571 5.40387 0.585256 5.04909 0.366737 4.62255C0.125295 4.11676 0 3.56331 0 3.00279C0 2.44227 0.125295 1.88882 0.366737 1.38303C0.587302 0.957944 0.92313 0.603676 1.33573 0.360847C1.68065 0.15496 2.06923 0.0333824 2.46992 0.00595737C2.87061 -0.0214677 3.27212 0.0460629 3.64184 0.203037C3.9635 0.335329 4.25298 0.535196 4.49066 0.789228C4.74334 1.06414 4.93985 1.38587 5.06908 1.73627C5.21604 2.1433 5.28729 2.57385 5.27938 3.00655C5.29744 3.5679 5.17069 4.12446 4.91132 4.62255C4.68847 5.046 4.35317 5.39971 3.94232 5.64474C3.54882 5.87738 3.09982 5.99941 2.64276 5.99797ZM2.64276 5.20122C2.95379 5.20844 3.25817 5.11046 3.50663 4.92312C3.76576 4.72968 3.96815 4.47008 4.09257 4.1715C4.24055 3.80661 4.31211 3.41528 4.30287 3.0216C4.31208 2.62548 4.24053 2.23161 4.09257 1.86408C3.9642 1.56783 3.76254 1.30917 3.50663 1.11246C3.25565 0.930872 2.95243 0.835911 2.64276 0.841893C2.33078 0.835906 2.02521 0.93079 1.77143 1.11246C1.51583 1.30766 1.31628 1.56694 1.19301 1.86408C1.05128 2.23317 0.982433 2.62628 0.990223 3.0216C0.982064 3.4145 1.05094 3.80513 1.19301 4.1715C1.31234 4.47091 1.51263 4.73116 1.77143 4.92312C2.0237 5.10781 2.33031 5.20311 2.64276 5.19378V5.20122Z" fill="#999899"/>
</svg>
