<svg preserveAspectRatio="none" overflow="visible" style="display: block;" width="731.973" height="112.55" viewBox="0 0 731.973 112.55" fill="none" xmlns="http://www.w3.org/2000/svg">
<g id="Group">
<path id="Vector" d="M237.12 12.8317C237.196 12.784 237.18 12.6685 237.096 12.6407C235.333 12.0795 233.562 11.1601 231.783 9.87847C231.659 9.79091 231.576 9.65161 231.556 9.49638C231.444 8.53717 231.13 7.77697 230.612 7.21577C230.39 6.97696 230.047 6.88541 229.737 6.98492L229.51 7.05656C229.287 7.12422 229.231 7.4108 229.406 7.56204C229.741 7.84861 229.916 8.03169 229.936 8.10732C230.083 8.59289 229.454 8.9312 229.132 8.53717L228.423 7.67746C228.391 7.63765 228.356 7.59786 228.316 7.56204L225.176 4.70429C225.08 4.61673 225.084 4.46947 225.18 4.38589C225.502 4.10728 225.812 3.9242 226.115 3.84061C226.262 3.79683 226.413 3.91226 226.413 4.06748V4.37395C226.413 4.48539 226.461 4.59286 226.545 4.67246L228.181 6.22074C228.348 6.37596 228.594 6.4078 228.797 6.30033C229.749 5.77495 230.493 5.4645 231.03 5.365C231.082 5.35704 231.134 5.34113 231.182 5.31327L233.176 4.20678C233.247 4.16698 233.263 4.07146 233.203 4.01176L230.851 1.65552C230.748 1.55601 230.748 1.38885 230.847 1.28138L231.902 0.16695C232.017 0.0435658 232.185 -0.0161377 232.352 0.003763C234.059 0.22267 236.165 0.517196 238.668 0.895309C240.017 1.0983 241.339 1.46447 242.636 1.99781C243.385 2.30826 243.759 2.73016 243.946 3.54609C244.292 5.08242 244.567 6.81378 244.762 8.74414C244.778 8.89937 244.949 8.98295 245.08 8.90733L249.279 6.48342C249.423 6.39983 249.602 6.49934 249.61 6.66253L249.626 6.90929C249.641 7.21178 249.498 7.50233 249.251 7.67746C248.352 8.31826 247.062 9.01877 245.383 9.77499C244.917 9.98196 244.38 10.0536 243.87 10.2805C241.621 11.2835 239.444 12.4457 237.331 13.7671C235.408 14.9691 233.498 14.376 231.783 13.0506C228.809 10.7581 225.629 8.99887 222.493 6.61477C222.258 6.43566 222.178 6.11724 222.302 5.85058L222.322 5.81078C222.433 5.57596 222.732 5.50829 222.931 5.67148C225.327 7.62572 227.794 9.34912 230.334 10.8337C230.975 11.2118 231.516 11.5979 231.958 11.9999C233.391 13.2974 235.373 13.9263 237.12 12.8317ZM244.189 9.2536L243.285 4.15106C243.245 3.92817 243.142 3.7212 242.987 3.562C242.553 3.11224 242.008 2.7819 241.343 2.57891C239.261 1.93811 236.949 1.46845 234.405 1.1779C233.836 1.11422 232.929 0.883372 232.332 1.05452C232.117 1.11422 232.037 1.37293 232.181 1.54407L233.741 3.36299C233.836 3.47444 234.003 3.49036 234.115 3.39484C234.517 3.05653 234.935 2.84558 235.369 2.76199C235.556 2.73015 235.747 2.762 235.914 2.85354C237.136 3.5421 238.402 4.39784 239.711 5.42471C239.982 5.63566 240.212 5.89834 240.408 6.20481C240.583 6.47944 240.344 6.8297 240.017 6.77795C239.703 6.73019 239.456 6.8098 239.277 7.01676C239.146 7.16403 239.202 7.39885 239.385 7.47448L244.029 9.38494C244.117 9.42076 244.205 9.34514 244.189 9.2536ZM238.794 6.39101C238.931 6.18491 238.875 5.9063 238.668 5.76747L235.658 3.76754C235.452 3.62967 235.174 3.68538 235.035 3.89327L235.008 3.93303C234.871 4.13913 234.927 4.41773 235.134 4.55656L238.144 6.5565C238.35 6.69437 238.628 6.63864 238.768 6.43076L238.794 6.39101ZM233.57 4.74808C233.43 4.94311 233.562 5.15008 233.976 5.37297C234.879 5.85854 235.584 6.37994 236.089 6.94114C236.523 7.4108 236.833 7.51825 237.024 7.25556C237.215 6.99287 237.016 6.73019 236.435 6.46352C235.747 6.15307 235.034 5.64361 234.294 4.93515C233.956 4.61276 233.713 4.54908 233.57 4.74808ZM232.805 5.86252C232.738 5.966 232.754 6.10132 232.845 6.18491C233.279 6.57098 233.701 6.84164 234.115 6.9889C234.684 7.19985 234.887 7.81279 235.408 7.95607C235.615 8.01577 235.775 7.76901 235.635 7.60184C235.353 7.26353 235.018 7.08442 234.64 7.06452C234.445 7.05656 234.266 6.94512 234.167 6.77795C233.9 6.3282 233.582 5.96203 233.215 5.67148C233.116 5.59585 232.973 5.61575 232.905 5.71924L232.805 5.86252ZM231.552 6.73019C232.013 7.21577 232.292 8.03965 232.388 9.20185C232.411 9.49638 232.75 9.65161 232.989 9.47648L234.115 8.6327C234.226 8.54911 234.226 8.38195 234.115 8.29837C232.499 7.06851 231.687 6.45556 231.675 6.45556C231.528 6.45158 231.452 6.62273 231.552 6.73019ZM242.41 9.86256C241.092 9.42076 239.743 8.74414 238.362 7.82473C238.187 7.70533 237.956 7.69736 237.773 7.80482L234.007 9.98196C233.916 10.0337 233.912 10.165 234.003 10.2208C235.209 10.9571 236.559 11.5462 238.051 11.9919C238.135 12.0158 238.222 12.0078 238.302 11.968L242.41 9.87051C242.414 9.86653 242.414 9.86654 242.41 9.86256Z" fill="white"/>
<path id="Vector_2" d="M10.7813 4.87943L8.56834 2.66648C8.46486 2.563 8.46884 2.38787 8.58028 2.29235L9.98924 1.08637C10.0808 1.01074 10.2042 0.986861 10.3196 1.02268C10.9564 1.23363 12.437 1.54806 14.7575 1.96597C16.8112 2.33215 18.8689 2.5033 20.7515 3.2834C21.3764 3.54211 21.7585 4.09535 21.9416 4.82371C22.3914 6.60283 22.67 8.29439 22.7854 9.89043C22.7933 10.0019 22.9088 10.0735 23.0122 10.0337C24.4809 9.44863 25.7983 8.70036 26.9725 7.79289C27.1635 7.64562 27.4382 7.67349 27.5934 7.85657L27.7446 8.03568C27.9198 8.23867 27.88 8.54912 27.6571 8.70036C26.5068 9.50037 25.2769 10.1213 23.9715 10.5631C22.3038 11.1243 21.2132 11.5263 20.6958 11.7651C18.5426 12.7561 17.257 13.389 16.8391 13.6636C15.1077 14.8059 14.0689 15.4148 13.7226 15.4905C13.5435 15.5303 13.3644 15.5502 13.1813 15.5502C11.9594 15.5422 10.8808 15.176 9.95342 14.4517C9.44397 14.0536 9.11362 13.8069 8.96238 13.7074C7.90764 13.0148 4.99815 11.0447 0.237912 7.79289C0.0389054 7.65757 -0.0486571 7.40284 0.0269655 7.17597L0.0986111 6.96503C0.158313 6.7899 0.369259 6.71826 0.520505 6.82572L11.1395 14.1014C11.7445 14.5153 12.5007 14.6427 13.2092 14.4517L14.455 14.1173C14.6938 14.0536 14.7057 13.7193 14.4749 13.6357C13.5355 13.2974 12.5326 12.7999 11.4619 12.1511C10.9763 11.8566 10.1644 11.9123 10.0808 11.2039C9.95343 10.0855 9.08576 8.80385 8.37729 8.0317C8.17431 7.80881 7.836 7.76503 7.58127 7.92821L7.52156 7.96403C7.30663 8.10334 7.28674 8.40981 7.48176 8.57299C8.09072 9.08245 8.21809 9.48843 7.85988 9.78694C7.60117 10.0019 7.21509 9.93023 7.06783 9.63968C6.57827 8.67251 5.50761 8.44563 4.88671 7.80483C4.09467 6.98492 3.51755 6.3282 3.1474 5.83864C3.02003 5.6675 3.05585 5.42471 3.227 5.29735L4.01904 4.7043C4.15437 4.6048 4.33347 4.73615 4.28173 4.89535L4.14641 5.30531C4.09467 5.46053 4.13845 5.63565 4.25387 5.75108L5.88175 7.37895C5.99319 7.4904 6.16035 7.5302 6.30762 7.47846C8.14246 6.87348 9.62307 6.15308 10.7495 5.32123C10.8927 5.21377 10.9087 5.00679 10.7813 4.87943ZM16.3813 3.12419L10.244 2.18488C9.91363 2.13314 9.70666 2.53513 9.94547 2.77394L11.6092 4.43366C11.7644 4.59286 12.0151 4.60082 12.1863 4.45753C12.9027 3.84459 13.655 3.84061 14.439 4.44559C15.2788 5.0864 16.4211 5.87845 17.8739 6.81776C18.3475 7.12025 18.2958 7.82872 17.7824 8.05956L17.3326 8.25857C17.1575 8.33817 17.1615 8.58891 17.3366 8.66056L21.6311 10.4238C21.8859 10.5312 22.1645 10.3243 22.1326 10.0496C21.9456 8.35011 21.6112 4.77197 20.3018 4.22669C19.5217 3.89634 18.4908 3.62171 17.2052 3.4028C17.0818 3.37892 16.9943 3.52618 17.0739 3.62569C17.7903 4.52918 18.7256 5.23366 19.8839 5.73914C20.1266 5.84262 20.1864 6.16103 19.9993 6.3481L19.9197 6.42771C19.653 6.69438 19.2311 6.71825 18.9326 6.48741L15.9356 4.16699C15.8122 4.06749 15.8002 3.88042 15.9117 3.76898L16.4251 3.25554C16.4689 3.21176 16.445 3.13215 16.3813 3.12419ZM16.6193 7.60324C16.7396 7.4307 16.6958 7.19587 16.5237 7.07714L13.4478 4.94729C13.2768 4.82769 13.042 4.87147 12.9217 5.04289L12.9035 5.06908C12.7833 5.24162 12.8271 5.47645 12.9991 5.59518L16.0751 7.72503C16.246 7.84463 16.4808 7.80085 16.6012 7.62942L16.6193 7.60324ZM11.1382 6.06022C10.9644 6.3481 11.1435 6.77398 11.5392 7.00992C11.9316 7.24761 12.3932 7.20383 12.5657 6.9146C12.7395 6.62671 12.5604 6.20083 12.1647 5.96489C11.7724 5.7272 11.3107 5.77098 11.1382 6.06022ZM13.0453 7.45987C12.9186 7.68543 13.245 8.10334 13.7701 8.39839C14.2958 8.6924 14.8251 8.74812 14.9492 8.52392C15.0759 8.29837 14.7495 7.88045 14.2244 7.58541C13.6987 7.29139 13.1694 7.23567 13.0453 7.45987ZM9.37631 7.63369C9.95343 8.29837 10.3514 9.07449 10.5703 9.95808C10.6937 10.4715 10.9962 10.5432 11.4778 10.173C11.8161 9.91431 11.8082 9.39689 11.4579 9.1541C11.2828 9.03072 11.0957 8.77997 10.8967 8.39389C10.845 8.29041 10.7733 8.19489 10.6898 8.11131C10.3554 7.78096 9.98129 7.53418 9.56735 7.36701C9.40417 7.29935 9.26088 7.49836 9.37631 7.63369ZM12.5883 9.32524C12.7952 9.44067 13.0102 9.44862 13.2251 9.34514C13.3166 9.30534 13.3286 9.18196 13.253 9.11828C13.1296 9.01878 12.9942 8.92723 12.851 8.84762C12.7077 8.76802 12.5604 8.70434 12.4132 8.64862C12.3176 8.61678 12.2221 8.69241 12.234 8.79589C12.2579 9.03072 12.3773 9.20982 12.5883 9.32524ZM12.2699 11.5183L14.6142 12.7283C15.1157 12.987 15.7087 13.0029 16.2182 12.7681L19.9237 11.0646C20.059 11.0049 20.051 10.8098 19.9117 10.7541L15.8321 9.10236C15.8002 9.09042 15.7644 9.0944 15.7326 9.10634L12.2898 10.6865C11.9395 10.8496 11.9276 11.3432 12.2699 11.5183Z" fill="white"/>
<path id="Vector_3" d="M474.427 13.8984C472.843 13.3611 471.267 12.577 469.703 11.5541C469.647 11.5183 469.596 11.4666 469.56 11.4069L467.908 8.53718C467.761 8.28643 467.478 8.15509 467.192 8.20683L467.064 8.23071C466.853 8.26653 466.766 8.52524 466.913 8.68444C467.192 8.97499 467.307 9.24565 467.259 9.49639C467.144 10.0775 466.336 10.1611 466.224 9.60387C466.208 9.52824 466.153 9.37699 466.053 9.15012C466.013 9.05858 465.942 8.98694 465.85 8.93918L464.815 8.3939C464.764 8.36604 464.716 8.33021 464.676 8.28643L462.419 5.76303C462.344 5.67546 462.372 5.54014 462.475 5.49238L463.924 4.83964C464.051 4.78392 464.163 4.94312 464.063 5.04262C463.872 5.22969 463.753 5.41277 463.701 5.59984C463.665 5.7272 463.701 5.86651 463.797 5.96203L465.48 7.64165C465.572 7.73319 465.711 7.75707 465.83 7.70533L470.411 5.63567C470.511 5.59189 470.531 5.46054 470.455 5.38492L468.075 3.00479C468 2.92917 467.996 2.80579 468.067 2.72221L469.408 1.16995C469.472 1.09831 469.576 1.07443 469.663 1.11821C469.97 1.26548 470.157 1.38886 470.427 1.43264C474.244 2.08538 476.792 2.53116 478.077 2.76599C479.566 3.04062 480.609 3.61375 481.202 4.48142C481.257 4.565 481.297 4.66054 481.313 4.76402L482.248 10.0218C482.264 10.0974 482.344 10.1452 482.416 10.1133C483.924 9.48048 485.257 8.7322 486.42 7.87648C486.65 7.70533 486.985 7.80484 487.084 8.07947L487.12 8.17897C487.232 8.48942 487.096 8.83171 486.802 8.98295C485.357 9.72326 484.016 10.376 482.774 10.9452C482.571 11.0407 482.26 11.1362 481.842 11.2278C481.691 11.2636 481.54 11.3193 481.405 11.3949C480.541 11.8845 479.546 12.374 478.42 12.8596C477.496 13.2576 476.211 13.994 474.559 15.0646C473.198 15.9442 472.533 15.8328 470.897 15.3751C470.471 15.2596 469.918 14.9611 469.245 14.4795C467.009 12.8915 463.908 10.7661 459.948 8.09937C459.665 7.90833 459.57 7.53419 459.729 7.2317L459.828 7.03667C459.948 6.80981 460.258 6.76205 460.441 6.94115C461.289 7.76902 461.914 8.31827 462.32 8.58892C464.736 10.2009 467.327 11.98 470.093 13.9263C471.458 14.8855 472.907 14.9651 474.447 14.1731C474.567 14.1134 474.555 13.9422 474.427 13.8984ZM476.835 8.84366L481.027 10.571C481.313 10.6865 481.612 10.4437 481.56 10.1412L480.748 5.568C480.648 5.01874 480.25 4.56899 479.717 4.40978C476.525 3.45455 473.21 2.76599 469.771 2.34807C469.448 2.30827 469.245 2.6824 469.456 2.92917L470.957 4.68441C471.08 4.8277 471.291 4.85954 471.45 4.76004C472.147 4.31426 472.76 3.8844 473.544 4.53316C474.837 5.59984 476.226 6.58692 477.719 7.49837C477.922 7.62175 477.89 7.92424 477.667 8.00783L476.843 8.31032C476.597 8.40186 476.593 8.74415 476.835 8.84366ZM472.151 5.26949C471.908 5.35706 471.868 5.68343 472.079 5.83069L475.259 8.00783C475.343 8.06355 475.45 8.07947 475.55 8.04365L475.88 7.92026C476.123 7.8327 476.163 7.50633 475.952 7.35906L472.772 5.18193C472.688 5.12621 472.581 5.11029 472.481 5.14611L472.151 5.26949ZM470.161 7.03269C470.264 7.12821 470.336 7.08444 470.38 6.90135C470.396 6.83369 470.527 6.85359 470.774 6.96105C471.426 7.23966 471.844 7.3909 472.023 7.41876C472.099 7.4307 472.171 7.46653 472.218 7.52623L473.261 8.72425C473.424 8.91529 473.687 8.99092 473.93 8.9153L474.029 8.88345C474.213 8.82773 474.272 8.59689 474.141 8.45758C473.687 7.96803 473.178 7.62175 472.617 7.41081C471.944 7.16404 471.741 6.65459 471.231 6.20881C471.096 6.09339 470.897 6.10533 470.774 6.23269L470.153 6.88941C470.117 6.92921 470.121 6.99289 470.161 7.03269ZM472.545 9.50038L472.688 9.32127C472.712 9.28943 472.708 9.24963 472.676 9.22575L472.613 9.174C471.462 8.27449 470.491 7.59389 470.439 7.65757L470.396 7.71727C470.348 7.78096 471.235 8.56106 472.386 9.46057L472.449 9.51232C472.481 9.5362 472.525 9.53222 472.545 9.50038ZM468.648 7.8526C468.549 7.94812 468.541 8.10335 468.628 8.20683C469.134 8.81579 469.524 9.40087 469.807 9.97003C470.057 10.4755 470.276 10.7024 470.467 10.6586C470.69 10.6069 470.993 10.4437 471.379 10.169C471.494 10.0894 471.498 9.92227 471.391 9.83072L468.967 7.84066C468.875 7.76503 468.748 7.76902 468.656 7.84464L468.648 7.8526ZM471.733 11.6735L474.093 12.9352C474.599 13.2019 475.2 13.2258 475.721 12.9949L479.502 11.3193C479.637 11.2596 479.633 11.0646 479.494 11.0049L475.379 9.27351C475.347 9.26157 475.311 9.26157 475.279 9.27749L471.765 10.8297C471.407 10.9889 471.387 11.4904 471.733 11.6735Z" fill="white"/>
<path id="Vector_4" d="M713.685 10.0855C713.717 10.1531 713.944 10.5869 714.362 11.387C714.469 11.5939 714.35 11.8487 714.119 11.8924C713.94 11.9283 713.805 11.9004 713.721 11.8088C713.164 11.2198 712.75 10.6506 712.483 10.1053C712.344 9.81878 712.01 9.68744 711.711 9.79888C711.416 9.91032 711.249 10.2287 711.333 10.5352C711.333 10.5392 711.428 10.6307 711.623 10.8098C711.783 10.9611 711.795 11.2118 711.651 11.379L711.548 11.5024C711.44 11.6258 711.249 11.6337 711.134 11.5183L707.229 7.61379C707.106 7.49041 707.146 7.27945 707.305 7.20781L708.483 6.67447C708.543 6.64661 708.603 6.71427 708.571 6.76999C708.511 6.8695 708.463 7.01278 708.423 7.19189C708.404 7.28741 708.431 7.38691 708.511 7.4904C709.1 8.26652 709.665 8.85161 710.206 9.24962C710.346 9.34912 710.529 9.36902 710.688 9.29738L715.015 7.34712C715.134 7.29139 715.17 7.14015 715.09 7.03268C714.346 6.07745 713.522 5.30531 712.626 4.71227C712.519 4.64063 712.499 4.48938 712.583 4.38988L713.88 2.88937C713.968 2.78986 714.107 2.75802 714.226 2.81374C714.485 2.93315 714.879 3.1441 715.206 3.20778C717.709 3.68141 720.169 4.09136 722.585 4.43365C723.548 4.56898 724.439 4.88341 725.263 5.38093C725.725 5.66352 726.043 6.12919 726.139 6.66253L727.062 11.8566C727.086 11.9919 727.238 12.0596 727.357 11.9919L731.588 9.55211C731.775 9.44465 732.002 9.59988 731.97 9.8148L731.942 10.0138C731.894 10.3203 731.711 10.5909 731.441 10.7462L728.049 12.7044C727.898 12.788 727.723 12.8198 727.552 12.7959L727.114 12.7283C727.054 12.7203 726.995 12.7283 726.939 12.7561L721.729 15.3034C721.339 15.4984 720.965 15.7253 720.615 15.992C718.74 17.4208 716.965 18.2487 714.788 16.7164C711.42 14.3482 708.013 11.9283 704.571 9.46057C704.296 9.26554 704.252 8.87549 704.471 8.62076L704.579 8.49738C704.726 8.32624 704.989 8.31428 705.152 8.47349C706.206 9.50036 706.999 10.1889 707.532 10.5432C710.652 12.6168 713.112 14.3362 714.911 15.7014C716.26 16.7243 717.661 16.8517 719.114 16.0756C719.253 15.9999 719.237 15.793 719.086 15.7412C717.419 15.1721 715.878 14.3641 714.461 13.3253C714.119 13.0705 714.242 12.5292 714.664 12.4536C715.015 12.3899 715.285 12.2865 715.48 12.1472C715.735 11.9641 715.743 11.586 715.496 11.3909L713.785 10.0058C713.729 9.96206 713.657 10.0218 713.685 10.0855ZM721.235 5.06252C721.12 5.0267 720.997 5.08241 720.945 5.18988C720.893 5.29734 720.929 5.42869 721.029 5.49636L724.153 7.63767C724.352 7.773 724.38 8.05956 724.209 8.23071L724.097 8.34215C723.926 8.5133 723.659 8.53717 723.464 8.40185L720.101 6.07347C719.974 5.98591 719.918 5.83069 719.958 5.68342C719.978 5.60382 720.057 5.46849 720.193 5.28143C720.296 5.13416 720.209 4.93117 720.033 4.90729L714.501 4.05555C714.111 3.99585 713.872 4.4655 714.151 4.7441L715.83 6.42372C715.922 6.51527 716.065 6.52721 716.169 6.45159C717.144 5.767 717.689 5.76302 718.792 6.48342C720.36 7.50632 721.514 8.35807 722.258 9.03867C722.545 9.30534 722.422 9.77898 722.043 9.8745L721.446 10.0218C721.212 10.0815 721.192 10.4078 721.419 10.4914L725.984 12.2029C726.27 12.3103 726.557 12.0556 726.485 11.7571L725.307 7.00085C725.188 6.51925 724.822 6.13317 724.344 5.98989L721.235 5.06252ZM720.404 9.71132L720.726 9.23768C720.782 9.15808 720.762 9.04664 720.678 8.99091L718.406 7.4307C717.781 7.00482 717.172 6.8098 717.044 6.99686L716.981 7.08841C716.853 7.27548 717.255 7.773 717.876 8.19887L720.153 9.75908C720.236 9.8148 720.348 9.7949 720.404 9.71132ZM718.995 10.3362C719.062 10.1014 718.931 9.83471 718.68 9.70336C717.665 9.174 716.81 8.5929 716.117 7.96006C715.799 7.66553 715.309 8.02772 715.496 8.41777C716.025 9.52027 717.562 9.17002 718.143 10.2924C718.207 10.4158 718.33 10.4954 718.469 10.4994C718.784 10.5153 718.959 10.4596 718.995 10.3362ZM714.095 8.6725L713.836 9.01479C713.809 9.05858 713.816 9.11429 713.856 9.14613L713.912 9.18594C714.995 9.98992 715.95 10.5392 716.045 10.4078L716.065 10.384C716.161 10.2526 715.361 9.49639 714.278 8.6924L714.222 8.6526C714.183 8.62076 714.123 8.62871 714.095 8.6725ZM716.543 11.0486C716.567 11.18 716.623 11.2715 716.706 11.3233C716.758 11.3551 716.818 11.3591 716.873 11.3392C717.363 11.168 717.594 11.0088 717.57 10.8656C717.546 10.7262 717.271 10.6586 716.75 10.6665C716.694 10.6665 716.638 10.6904 716.603 10.7382C716.539 10.8138 716.523 10.9173 716.543 11.0486ZM716.416 13.4248L718.843 14.6984C719.365 14.9691 719.978 14.989 720.511 14.7462L724.372 13.0029C724.511 12.9392 724.507 12.7402 724.364 12.6805L720.133 10.9372C720.101 10.9253 720.061 10.9253 720.029 10.9412L716.443 12.5611C716.077 12.7243 716.061 13.2377 716.416 13.4248Z" fill="white"/>
<path id="Vector_5" d="M293.924 54.8264C294.526 54.1982 294.978 53.6531 294.932 53.609C294.886 53.5648 294.36 54.0384 293.757 54.6667C293.155 55.2949 292.704 55.84 292.75 55.8841C292.796 55.9283 293.321 55.4547 293.924 54.8264Z" fill="white"/>
<path id="Vector_6" d="M47.8802 75.2005C48.0831 75.1408 48.2861 75.296 48.2861 75.5109V107.022C48.2861 107.057 48.2623 107.089 48.2304 107.101C42.6144 108.992 36.883 110.405 31.0362 111.336C24.7118 112.343 18.3356 112.721 11.9037 112.478C8.86687 112.363 5.75042 112.196 2.55437 111.973C2.32751 111.957 2.15238 111.77 2.15238 111.543V80.0204C2.15238 79.8891 2.26383 79.7896 2.39517 79.8015C9.12956 80.5458 16.0152 80.6652 23.0481 80.1518C29.87 79.6542 36.688 78.4124 43.502 76.4343C44.2184 76.2273 45.6791 75.8174 47.8802 75.2005ZM47.1518 76.1756C40.4572 78.1935 33.9019 79.7776 26.9486 80.5697C26.7815 80.5896 26.6541 80.7328 26.6541 80.9V110.99C26.6541 111.105 26.7576 111.197 26.873 111.181C33.8223 110.285 40.6085 108.685 47.2354 106.373C47.3349 106.337 47.4025 106.242 47.4025 106.134V76.3666C47.4025 76.2353 47.2752 76.1398 47.1518 76.1756ZM14.5147 111.75C18.459 111.754 23.259 111.34 25.679 111.217C25.7785 111.209 25.8581 111.129 25.8581 111.03V80.896C25.8581 80.7806 25.7546 80.6891 25.6352 80.697C21.9774 81.0791 18.3237 81.1468 14.5545 81.1428C10.7853 81.1388 7.13551 81.0592 3.47378 80.6692C3.35836 80.6572 3.25487 80.7488 3.25487 80.8642L3.1713 110.998C3.1713 111.097 3.2509 111.181 3.3504 111.185C5.77032 111.316 10.5704 111.746 14.5147 111.75Z" fill="white"/>
<path id="Vector_7" d="M226.853 109.725L222.895 109.239C222.838 109.232 222.787 109.273 222.78 109.329L222.779 109.337C222.772 109.394 222.812 109.446 222.869 109.452L226.827 109.939C226.884 109.945 226.935 109.905 226.942 109.848L226.943 109.841C226.95 109.784 226.91 109.732 226.853 109.725Z" fill="white"/>
</g>
</svg>
