<svg preserveAspectRatio="none" overflow="visible" style="display: block;" width="4.83167" height="7.71002" viewBox="0 0 4.83167 7.71002" fill="none" xmlns="http://www.w3.org/2000/svg">
<path id="Vector" d="M2.14875 7.70266C1.76543 7.71025 1.38349 7.65463 1.01827 7.538C0.730211 7.45238 0.471227 7.28924 0.269617 7.06641C0.0920203 6.85779 -0.00374448 6.59179 0.000112102 6.31786C0.00130874 6.08784 0.0717598 5.86353 0.202264 5.67411C0.347757 5.45294 0.542512 5.26844 0.771249 5.13513V5.09021C0.634237 5.00571 0.518816 4.89035 0.434299 4.75335C0.340968 4.59759 0.294256 4.41835 0.299592 4.23685C0.295145 4.02911 0.361107 3.826 0.486756 3.66049C0.597029 3.51044 0.728126 3.37683 0.876071 3.26374C0.683697 3.10623 0.523545 2.91305 0.404415 2.69483C0.260017 2.44218 0.187503 2.15485 0.19477 1.86394C0.184467 1.51277 0.278224 1.16638 0.464274 0.868353C0.650568 0.589631 0.909424 0.367055 1.21293 0.224607C1.51265 0.0746954 1.8436 -0.0022432 2.17872 4.9789e-05C2.31931 5.96091e-06 2.45957 0.0125226 2.59792 0.0374684C2.70854 0.057715 2.81657 0.0903619 2.91988 0.134784H4.73906V0.808502H3.64606C3.78083 0.93619 3.88568 1.09212 3.95303 1.26511C4.03217 1.46008 4.07277 1.66852 4.07275 1.87893C4.07966 2.21825 3.99152 2.55272 3.81823 2.84455C3.65241 3.11478 3.41373 3.33276 3.12953 3.47336C2.82795 3.62553 2.49402 3.70256 2.15624 3.69791C2.02474 3.69762 1.89383 3.67999 1.76693 3.64551C1.63671 3.61744 1.51083 3.57214 1.3926 3.51077C1.29935 3.58485 1.21853 3.67327 1.15307 3.77275C1.08316 3.88187 1.04913 4.01011 1.05574 4.13953C1.0548 4.21661 1.07106 4.29291 1.10345 4.36286C1.13583 4.4328 1.18352 4.49464 1.2429 4.54378C1.46935 4.67456 1.73163 4.7296 1.99156 4.70095H3.01721C3.48801 4.67214 3.95742 4.77589 4.37223 5.00039C4.52444 5.1037 4.64684 5.24525 4.727 5.41081C4.80716 5.57637 4.84226 5.76012 4.8289 5.94358C4.82964 6.26911 4.71571 6.58449 4.50703 6.83436C4.26229 7.1317 3.9452 7.36108 3.5862 7.50054C3.12585 7.66518 2.63666 7.73397 2.14875 7.70266ZM2.26856 7.09634C2.5649 7.1018 2.85953 7.05099 3.13693 6.94662C3.35695 6.86029 3.5542 6.72457 3.71341 6.54991C3.84541 6.41301 3.92038 6.23103 3.92306 6.04089C3.93235 5.93803 3.91189 5.83467 3.86411 5.7431C3.81633 5.65153 3.74325 5.57561 3.65355 5.52439C3.41806 5.42067 3.16202 5.37203 2.9049 5.38216H1.99905H1.67709C1.55798 5.37057 1.44021 5.348 1.32525 5.31477C1.16246 5.42832 1.02691 5.57663 0.928437 5.74895C0.846156 5.88439 0.802136 6.03959 0.801133 6.19806C0.800132 6.33475 0.836648 6.4691 0.906595 6.58655C0.976542 6.70399 1.07727 6.80004 1.19794 6.86429C1.53039 7.03577 1.90248 7.11585 2.27605 7.09634H2.26856ZM2.13376 3.05417C2.33332 3.0573 2.52976 3.00418 2.70055 2.90093C2.87134 2.79767 3.00962 2.64843 3.09955 2.47027C3.19885 2.2662 3.25044 2.04223 3.25044 1.81529C3.25044 1.58834 3.19885 1.36437 3.09955 1.1603C3.01016 0.985471 2.87242 0.839979 2.70275 0.741112C2.52973 0.642404 2.33288 0.593198 2.13376 0.598885C1.9421 0.596162 1.75327 0.645306 1.58726 0.741112C1.41561 0.836495 1.27518 0.979464 1.18295 1.15281C1.07502 1.35774 1.02339 1.58763 1.03326 1.81903C1.02956 2.04505 1.08091 2.26856 1.18295 2.47027C1.2789 2.64679 1.41801 2.79616 1.58726 2.90445C1.75704 3.00516 1.95136 3.05698 2.14875 3.05417H2.13376Z" fill="#999899"/>
</svg>
